<?xml version="1.0" encoding="UTF-8"?>
<!-- Generator: visioncortex VTracer 0.6.12 -->
<svg version="1.1" xmlns="http://www.w3.org/2000/svg" width="131" height="146">
<path d="M0 0 C2.561 1.522 5.15 2.947 7.797 4.312 C8.466 4.658 9.136 5.004 9.825 5.361 C11.107 6.017 12.392 6.667 13.68 7.309 C19.04 10.076 22.919 13.761 26.43 18.625 C26.825 19.16 27.221 19.695 27.629 20.246 C30.463 25.188 31.127 30.215 31.367 35.812 C31.404 36.596 31.442 37.379 31.48 38.187 C31.843 47.266 31.849 56.353 31.867 65.438 C31.87 66.201 31.873 66.965 31.875 67.752 C31.973 104.699 31.973 104.699 22.449 114.754 C16.528 119.727 9.957 121.31 2.348 121.317 C1.82 121.318 1.82 121.318 -0.851 121.326 C-1.417 121.325 -1.417 121.325 -4.285 121.32 C-5.466 121.321 -6.646 121.322 -7.862 121.323 C-10.363 121.324 -12.864 121.322 -15.365 121.318 C-19.15 121.313 -22.935 121.318 -26.721 121.324 C-67.142 121.339 -67.142 121.339 -76.195 112.938 C-84.161 104.707 -83.853 95.488 -83.789 84.754 C-83.792 83.15 -83.796 81.547 -83.801 79.943 C-83.807 76.592 -83.798 73.241 -83.779 69.889 C-83.757 65.615 -83.77 61.341 -83.794 57.066 C-83.808 53.757 -83.803 50.448 -83.793 47.139 C-83.79 45.564 -83.794 43.989 -83.803 42.414 C-83.842 33.963 -83.745 26.647 -79.258 19.188 C-78.979 18.662 -78.979 18.662 -77.57 16 C-72.831 10.236 -67.22 7.337 -60.133 5.25 C-55.008 3.7 -52.401 1.829 -48.898 -2.133 C-35.648 -15.699 -13.695 -8.172 0 0 Z " fill="#FCFBF9" transform="translate(91.2578125,16.8125)"/>
<path d="M0 0 C2.561 1.522 5.15 2.947 7.797 4.312 C8.466 4.658 9.136 5.004 9.825 5.361 C11.107 6.017 12.392 6.667 13.68 7.309 C19.04 10.076 22.919 13.761 26.43 18.625 C26.825 19.16 27.221 19.695 27.629 20.246 C30.463 25.188 31.127 30.215 31.367 35.812 C31.404 36.596 31.442 37.379 31.48 38.187 C31.843 47.266 31.849 56.353 31.867 65.438 C31.87 66.201 31.873 66.965 31.875 67.752 C31.973 104.699 31.973 104.699 22.449 114.754 C16.528 119.727 9.957 121.31 2.348 121.317 C1.82 121.318 1.82 121.318 -0.851 121.326 C-1.417 121.325 -1.417 121.325 -4.285 121.32 C-5.466 121.321 -6.646 121.322 -7.862 121.323 C-10.363 121.324 -12.864 121.322 -15.365 121.318 C-19.15 121.313 -22.935 121.318 -26.721 121.324 C-67.142 121.339 -67.142 121.339 -76.195 112.938 C-84.161 104.707 -83.853 95.488 -83.789 84.754 C-83.792 83.15 -83.796 81.547 -83.801 79.943 C-83.807 76.592 -83.798 73.241 -83.779 69.889 C-83.757 65.615 -83.77 61.341 -83.794 57.066 C-83.808 53.757 -83.803 50.448 -83.793 47.139 C-83.79 45.564 -83.794 43.989 -83.803 42.414 C-83.842 33.963 -83.745 26.647 -79.258 19.188 C-78.979 18.662 -78.979 18.662 -77.57 16 C-72.831 10.236 -67.22 7.337 -60.133 5.25 C-55.008 3.7 -52.401 1.829 -48.898 -2.133 C-35.648 -15.699 -13.695 -8.172 0 0 Z M-43.195 12.25 C-46.258 15.864 -46.258 15.864 -46.258 18.188 C-46.887 18.141 -47.516 18.095 -48.164 18.047 C-54.174 17.793 -59.552 18.088 -64.258 22.188 C-69.469 28.871 -68.842 35.931 -68.789 44.098 C-68.792 45.553 -68.796 47.008 -68.801 48.464 C-68.807 51.504 -68.798 54.544 -68.779 57.584 C-68.756 61.47 -68.77 65.355 -68.794 69.241 C-68.808 72.243 -68.803 75.245 -68.793 78.247 C-68.79 79.679 -68.794 81.112 -68.803 82.544 C-68.813 84.549 -68.795 86.554 -68.775 88.559 C-68.772 89.697 -68.769 90.835 -68.766 92.007 C-67.928 97.252 -65.393 100.312 -61.258 103.5 C-56.92 105.94 -53.554 106.317 -48.606 106.38 C-47.471 106.396 -46.336 106.412 -45.167 106.429 C-39.983 106.474 -34.799 106.515 -29.615 106.538 C-26.884 106.551 -24.153 106.579 -21.422 106.62 C-17.477 106.679 -13.532 106.696 -9.586 106.711 C-8.371 106.734 -7.156 106.756 -5.905 106.78 C1.22 106.762 6.324 106.071 11.742 101.188 C15.364 96.398 15.865 92.118 15.903 86.229 C15.913 85.027 15.923 83.826 15.932 82.588 C15.937 81.293 15.941 79.998 15.945 78.664 C15.951 77.317 15.957 75.969 15.963 74.621 C15.973 71.799 15.979 68.976 15.982 66.153 C15.988 62.546 16.012 58.94 16.04 55.333 C16.059 52.55 16.064 49.767 16.066 46.984 C16.07 45.011 16.089 43.038 16.108 41.065 C16.105 39.857 16.102 38.649 16.099 37.405 C16.102 36.347 16.106 35.288 16.11 34.198 C15.603 30.045 14.104 26.683 11.277 23.578 C6.774 20.09 3.765 17.893 -2.008 18.062 C-2.407 18.072 -2.407 18.072 -4.43 18.117 C-4.731 18.129 -4.731 18.129 -6.258 18.188 C-6.443 17.486 -6.629 16.785 -6.82 16.062 C-9.154 11.395 -12.958 8.313 -17.621 6.031 C-27.147 2.983 -36.489 4.889 -43.195 12.25 Z " fill="#EFECE4" transform="translate(91.2578125,16.8125)"/>
<path d="M0 0 C0.33 0 0.66 0 1 0 C1.006 0.746 1.012 1.493 1.018 2.262 C1.076 9.323 1.148 16.385 1.236 23.446 C1.28 27.075 1.32 30.705 1.346 34.334 C1.373 37.843 1.413 41.35 1.463 44.858 C1.488 46.836 1.498 48.815 1.508 50.793 C1.749 65.661 1.749 65.661 7.312 71.375 C12.305 74.393 16.767 75.25 22.556 75.227 C23.837 75.227 25.118 75.227 26.438 75.227 C27.82 75.216 29.203 75.206 30.586 75.195 C32.012 75.192 33.439 75.189 34.865 75.187 C38.603 75.179 42.342 75.16 46.08 75.137 C49.901 75.117 53.722 75.108 57.543 75.098 C65.029 75.076 72.514 75.042 80 75 C79.835 75.66 79.835 75.66 79 79 C80.32 77.68 81.64 76.36 83 75 C83.33 75.66 83.66 76.32 84 77 C86.063 78.125 86.063 78.125 88 79 C88 82.696 87.165 85.505 86 89 C79.303 91.386 72.725 91.276 65.68 91.23 C64.503 91.23 63.327 91.23 62.115 91.229 C59.632 91.226 57.15 91.218 54.667 91.206 C50.908 91.188 47.15 91.185 43.391 91.186 C3.091 91.129 3.091 91.129 -5.938 82.75 C-12.439 76.032 -13.446 69.498 -13.301 60.488 C-13.258 59.138 -13.215 57.788 -13.172 56.438 C-13.142 55.036 -13.114 53.635 -13.087 52.234 C-13.014 48.571 -12.915 44.909 -12.811 41.246 C-12.709 37.499 -12.631 33.752 -12.551 30.004 C-12.39 22.669 -12.204 15.334 -12 8 C-11.526 8.093 -11.526 8.093 -9.125 8.562 C-6 9 -6 9 -4 8 C-4 8.99 -4 9.98 -4 11 C-3.67 9.68 -3.34 8.36 -3 7 C-3.66 7 -4.32 7 -5 7 C-4.67 5.35 -4.34 3.7 -4 2 C-3.01 2 -2.02 2 -1 2 C-0.67 1.34 -0.34 0.68 0 0 Z " fill="#F5F2EB" transform="translate(21,47)"/>
<path d="M0 0 C3.066 2.351 5.65 5.106 7.758 8.348 C7.758 9.008 7.758 9.668 7.758 10.348 C8.036 10.319 8.036 10.319 9.445 10.172 C15.892 9.791 19.799 11.23 24.758 15.348 C28.953 19.866 29.88 23.091 29.919 29.161 C29.929 30.356 29.938 31.551 29.948 32.783 C29.952 34.076 29.957 35.37 29.961 36.703 C29.967 38.047 29.972 39.391 29.978 40.736 C29.989 43.556 29.995 46.376 29.998 49.197 C30.004 52.793 30.028 56.389 30.056 59.986 C30.075 62.765 30.08 65.543 30.081 68.322 C30.086 70.288 30.104 72.253 30.123 74.218 C30.107 80.97 29.792 86.263 26.758 92.348 C22.236 96.754 18.388 98.593 12.106 98.622 C10.971 98.632 9.836 98.641 8.667 98.651 C7.444 98.65 6.221 98.649 4.961 98.648 C3.698 98.653 2.435 98.657 1.134 98.661 C-1.539 98.667 -4.212 98.669 -6.885 98.663 C-10.292 98.658 -13.699 98.674 -17.106 98.698 C-20.375 98.716 -23.645 98.712 -26.914 98.711 C-27.521 98.716 -27.521 98.716 -30.595 98.739 C-44.705 98.662 -44.705 98.662 -49.791 93.896 C-53.612 89.463 -54.37 86.908 -54.419 81.173 C-54.432 79.874 -54.445 78.576 -54.458 77.238 C-54.466 75.812 -54.474 74.387 -54.48 72.961 C-54.485 72.243 -54.489 71.526 -54.493 70.786 C-54.514 66.985 -54.528 63.184 -54.537 59.383 C-54.548 55.467 -54.583 51.551 -54.623 47.635 C-54.649 44.616 -54.657 41.597 -54.661 38.578 C-54.665 37.135 -54.677 35.692 -54.696 34.25 C-54.865 20.238 -54.865 20.238 -50.242 14.348 C-45.537 10.248 -40.158 9.954 -34.148 10.207 C-33.519 10.253 -32.89 10.3 -32.242 10.348 C-32.16 10.007 -32.16 10.007 -31.742 8.285 C-29.427 3.751 -25.231 -0.576 -20.344 -2.336 C-13.308 -3.395 -6.284 -3.668 0 0 Z M8.758 14.348 C8.173 15.658 7.634 16.988 7.121 18.328 C5.819 20.524 5.819 20.524 3.758 22.348 C-1.833 23.549 -7.359 23.423 -13.055 23.348 C-14.622 23.356 -16.189 23.367 -17.756 23.383 C-21.586 23.413 -25.413 23.393 -29.242 23.348 C-30.317 20.695 -31.337 18.064 -32.242 15.348 C-42.233 14.56 -42.233 14.56 -46.367 17.785 C-46.986 18.631 -47.605 19.476 -48.242 20.348 C-48.572 20.678 -48.902 21.008 -49.242 21.348 C-49.357 23.346 -49.402 25.348 -49.419 27.349 C-49.432 28.634 -49.445 29.919 -49.458 31.243 C-49.466 32.658 -49.474 34.073 -49.48 35.488 C-49.485 36.198 -49.489 36.908 -49.493 37.64 C-49.514 41.4 -49.528 45.159 -49.537 48.919 C-49.548 52.801 -49.583 56.682 -49.623 60.564 C-49.649 63.549 -49.657 66.535 -49.661 69.52 C-49.666 70.951 -49.677 72.381 -49.696 73.812 C-49.72 75.817 -49.717 77.823 -49.712 79.829 C-49.718 80.97 -49.724 82.11 -49.73 83.285 C-49.124 87.09 -47.99 88.678 -45.242 91.348 C-41.668 93.277 -38.655 93.603 -34.629 93.622 C-33.528 93.632 -32.426 93.641 -31.292 93.651 C-30.111 93.65 -28.931 93.649 -27.715 93.648 C-26.493 93.653 -25.271 93.657 -24.013 93.661 C-21.431 93.667 -18.85 93.668 -16.269 93.663 C-12.323 93.66 -8.378 93.684 -4.432 93.709 C-1.922 93.711 0.588 93.712 3.098 93.711 C4.276 93.72 5.454 93.729 6.668 93.739 C17.449 93.678 17.449 93.678 21.758 90.348 C24.281 86.117 25.139 82.956 25.178 78.054 C25.194 76.83 25.21 75.605 25.226 74.343 C25.226 73.688 25.226 73.688 25.227 70.375 C25.234 69.005 25.241 67.636 25.25 66.266 C25.263 63.404 25.265 60.543 25.259 57.68 C25.253 54.019 25.284 50.36 25.324 46.699 C25.35 43.874 25.353 41.049 25.349 38.224 C25.352 36.22 25.376 34.217 25.401 32.213 C25.324 22.12 25.324 22.12 22.373 19.096 C21.51 18.519 20.647 17.942 19.758 17.348 C18.953 16.75 18.149 16.151 17.32 15.535 C14.016 14.004 12.345 13.526 8.758 14.348 Z " fill="#33160C" transform="translate(77.2421875,24.65234375)"/>
<path d="M0 0 C2.446 0.235 4.892 0.473 7.336 0.734 C9.448 0.945 11.568 1.08 13.688 1.188 C18.139 2.279 21.064 4.499 24 8 C25.828 11.796 26.256 14.846 26.275 19.04 C26.284 20.235 26.294 21.43 26.304 22.662 C26.303 23.945 26.302 25.228 26.301 26.551 C26.305 27.892 26.309 29.233 26.314 30.575 C26.321 33.383 26.321 36.191 26.316 39 C26.31 42.581 26.327 46.161 26.35 49.742 C26.365 52.512 26.366 55.282 26.363 58.053 C26.363 60.009 26.377 61.965 26.391 63.921 C26.356 70.65 26.026 75.938 23 82 C18.875 85.924 16.325 87.125 10.728 87.129 C10.177 87.131 10.177 87.131 7.389 87.139 C6.193 87.137 4.998 87.135 3.766 87.133 C2.54 87.134 1.314 87.135 0.051 87.136 C-3.215 87.137 -6.481 87.133 -9.747 87.127 C-13.053 87.124 -16.358 87.131 -19.664 87.137 C-22.188 87.136 -24.711 87.135 -27.234 87.133 C-28.422 87.135 -29.61 87.137 -30.833 87.139 C-31.948 87.136 -33.062 87.133 -34.21 87.129 C-34.698 87.129 -34.698 87.129 -37.166 87.127 C-40.177 86.992 -43.04 86.552 -46 86 C-46 85.01 -46 84.02 -46 83 C-45.287 82.994 -44.573 82.988 -43.838 82.982 C-37.1 82.924 -30.362 82.852 -23.624 82.764 C-20.16 82.72 -16.697 82.68 -13.233 82.654 C-9.246 82.622 -5.26 82.568 -1.273 82.512 C-0.655 82.509 -0.655 82.509 2.477 82.492 C13.745 82.3 13.745 82.3 18 79 C19.916 75.208 20.265 72.038 20.306 67.82 C20.322 66.596 20.338 65.371 20.355 64.109 C20.358 63.452 20.358 63.452 20.371 60.125 C20.38 58.754 20.389 57.383 20.398 56.012 C20.415 53.144 20.423 50.276 20.426 47.408 C20.431 43.739 20.469 40.072 20.514 36.403 C20.544 33.574 20.551 30.744 20.552 27.915 C20.558 25.907 20.588 23.899 20.618 21.891 C20.568 11.769 20.568 11.769 17.586 8.715 C16.733 8.149 15.879 7.583 15 7 C14.68 6.783 14.68 6.783 13.062 5.688 C10.323 4.774 7.865 4.87 5 5 C3.68 7.31 2.36 9.62 1 12 C0.01 11.67 -0.98 11.34 -2 11 C-1.34 7.37 -0.68 3.74 0 0 Z " fill="#412015" transform="translate(81,35)"/>
<path d="M0 0 C4.882 1.134 6.913 2.884 10 7 C10 10.3 10 13.6 10 17 C0.1 17 -9.8 17 -20 17 C-20 6.686 -20 6.686 -16 2 C-11.117 -1.256 -5.713 -0.447 0 0 Z " fill="#FCFCFB" transform="translate(70,27)"/>
<path d="M0 0 C3.066 2.351 5.65 5.106 7.758 8.348 C7.758 9.008 7.758 9.668 7.758 10.348 C10.728 10.348 13.698 10.348 16.758 10.348 C13.405 12.583 12.85 12.52 9.07 11.973 C8.262 11.862 7.454 11.751 6.621 11.637 C6.006 11.541 5.391 11.446 4.758 11.348 C4.428 13.328 4.098 15.308 3.758 17.348 C3.428 17.348 3.098 17.348 2.758 17.348 C2.706 16.729 2.706 16.729 2.445 13.598 C1.982 10.05 1.514 7.818 -1.242 5.348 C-7.499 2.861 -13.588 2.476 -20.242 3.348 C-23.294 5.019 -24.691 7.246 -26.242 10.348 C-26.572 13.318 -26.902 16.288 -27.242 19.348 C-17.342 19.348 -7.442 19.348 2.758 19.348 C2.923 20.008 2.923 20.008 3.758 23.348 C-0.887 23.471 -5.531 23.562 -10.177 23.622 C-11.757 23.647 -13.337 23.682 -14.917 23.725 C-17.188 23.786 -19.458 23.814 -21.73 23.836 C-22.084 23.849 -22.084 23.849 -23.871 23.914 C-25.872 23.915 -25.872 23.915 -29.242 23.348 C-31.644 20.49 -32.242 19.085 -32.242 15.348 C-34.882 15.348 -37.522 15.348 -40.242 15.348 C-40.242 15.018 -40.242 14.688 -40.242 14.348 C-37.932 14.348 -35.622 14.348 -33.242 14.348 C-33.242 13.688 -33.242 13.028 -33.242 12.348 C-37.202 12.348 -41.162 12.348 -45.242 12.348 C-41.928 10.139 -40.898 10.123 -37.055 10.223 C-36.154 10.241 -35.253 10.259 -34.324 10.277 C-33.637 10.301 -32.95 10.324 -32.242 10.348 C-32.077 9.667 -31.912 8.986 -31.742 8.285 C-29.427 3.751 -25.231 -0.576 -20.344 -2.336 C-13.308 -3.395 -6.284 -3.668 0 0 Z " fill="#573E32" transform="translate(77.2421875,24.65234375)"/>
<path d="M0 0 C-1.152 2.468 -2.048 4.048 -4 6 C-6.125 5.625 -6.125 5.625 -8 5 C-7.34 6.32 -6.68 7.64 -6 9 C-6.66 9 -7.32 9 -8 9 C-8 9.66 -8 10.32 -8 11 C-8.66 11 -9.32 11 -10 11 C-10 11.66 -10 12.32 -10 13 C-8.68 13 -7.36 13 -6 13 C-5.67 14.32 -5.34 15.64 -5 17 C-4.34 17 -3.68 17 -3 17 C-3 38.45 -3 59.9 -3 82 C-3.33 82 -3.66 82 -4 82 C-4.33 69.46 -4.66 56.92 -5 44 C-5.33 44 -5.66 44 -6 44 C-6 37.07 -6 30.14 -6 23 C-6.99 23.33 -7.98 23.66 -9 24 C-9.688 26.062 -9.688 26.062 -10 28 C-9.34 28 -8.68 28 -8 28 C-7.67 29.32 -7.34 30.64 -7 32 C-7.66 32 -8.32 32 -9 32 C-9.33 31.34 -9.66 30.68 -10 30 C-10.66 30.33 -11.32 30.66 -12 31 C-12.825 30.67 -12.825 30.67 -17 29 C-17 48.8 -17 68.6 -17 89 C-17.33 89 -17.66 89 -18 89 C-18.093 80.029 -18.164 71.057 -18.207 62.086 C-18.228 57.919 -18.256 53.753 -18.302 49.586 C-18.345 45.56 -18.369 41.533 -18.38 37.507 C-18.387 35.976 -18.401 34.446 -18.423 32.915 C-18.537 24.534 -18.447 17.353 -14 10 C-13.402 8.928 -12.804 7.855 -12.188 6.75 C-8.963 2.696 -5.351 -1.784 0 0 Z " fill="#EEECE4" transform="translate(26,26)"/>
<path d="M0 0 C0.99 0 1.98 0 3 0 C3.33 15.18 3.66 30.36 4 46 C4.66 40.72 5.32 35.44 6 30 C6.33 30 6.66 30 7 30 C7.33 32.64 7.66 35.28 8 38 C8.33 38 8.66 38 9 38 C9 40.97 9 43.94 9 47 C9.33 46.835 9.33 46.835 11 46 C11.054 48.604 11.094 51.208 11.125 53.812 C11.142 54.55 11.159 55.288 11.176 56.049 C11.211 59.912 11.194 61.709 9 65 C9 65.66 9 66.32 9 67 C8.34 67 7.68 67 7 67 C7 64.69 7 62.38 7 60 C6.835 60.165 6.835 60.165 6 61 C5.67 59.68 5.34 58.36 5 57 C4.856 57.547 4.856 57.547 4.125 60.312 C3 64 3 64 1 67 C0.67 44.89 0.34 22.78 0 0 Z " fill="#F3EFE6" transform="translate(107,41)"/>
<path d="M0 0 C7.919 -0.069 15.838 -0.123 23.757 -0.155 C27.434 -0.171 31.11 -0.192 34.787 -0.226 C38.334 -0.259 41.88 -0.277 45.427 -0.285 C46.782 -0.29 48.137 -0.301 49.492 -0.317 C51.385 -0.339 53.279 -0.34 55.173 -0.341 C56.253 -0.347 57.332 -0.354 58.444 -0.361 C58.865 -0.301 58.865 -0.301 61 0 C61.66 0.99 62.32 1.98 63 3 C61.305 4.695 59.161 4.128 56.841 4.129 C55.739 4.133 54.638 4.136 53.503 4.139 C52.302 4.137 51.101 4.135 49.863 4.133 C49.25 4.133 49.25 4.133 46.144 4.136 C42.87 4.137 39.596 4.133 36.322 4.127 C33.009 4.124 29.697 4.131 26.385 4.137 C23.857 4.136 21.329 4.135 18.801 4.133 C17.61 4.135 16.419 4.137 15.192 4.139 C14.075 4.136 12.957 4.133 11.806 4.129 C10.827 4.129 9.849 4.128 8.841 4.127 C5.828 3.992 2.963 3.553 0 3 C0 2.01 0 1.02 0 0 Z " fill="#240A04" transform="translate(35,118)"/>
<path d="M0 0 C1.772 0 3.544 0.006 5.316 0.016 C6.247 0.017 7.178 0.019 8.137 0.02 C11.122 0.026 14.108 0.038 17.094 0.051 C19.112 0.056 21.131 0.061 23.15 0.065 C28.11 0.076 33.071 0.093 38.031 0.114 C38.594 2.051 38.594 2.051 39.031 4.114 C38.031 5.114 38.031 5.114 34.062 5.227 C32.29 5.227 30.518 5.221 28.746 5.211 C27.815 5.21 26.884 5.208 25.925 5.207 C22.94 5.201 19.954 5.189 16.969 5.176 C14.95 5.171 12.931 5.166 10.912 5.162 C5.952 5.151 0.991 5.134 -3.969 5.114 C-4.531 3.176 -4.531 3.176 -4.969 1.114 C-3.969 0.114 -3.969 0.114 0 0 Z " fill="#583424" transform="translate(47.968994140625,80.886474609375)"/>
<path d="M0 0 C0.864 0.002 1.727 0.004 2.617 0.006 C3.498 0.005 4.38 0.004 5.288 0.003 C7.157 0.003 9.026 0.004 10.895 0.009 C13.761 0.014 16.627 0.009 19.494 0.002 C21.306 0.003 23.117 0.004 24.929 0.006 C25.36 0.005 25.36 0.005 27.54 0 C33.609 0.024 33.609 0.024 35.839 1.139 C35.509 2.459 35.179 3.779 34.839 5.139 C21.309 5.139 7.779 5.139 -6.161 5.139 C-6.491 3.819 -6.821 2.499 -7.161 1.139 C-5.269 -0.753 -2.517 0.01 0 0 Z " fill="#4E2A17" transform="translate(51.16062927246094,62.861053466796875)"/>
<path d="M0 0 C2.29 3.435 2.178 4.985 2 9 C2.66 9 3.32 9 4 9 C4 7.35 4 5.7 4 4 C4.33 4 4.66 4 5 4 C5 6.31 5 8.62 5 11 C14.9 11 24.8 11 35 11 C35.165 11.66 35.165 11.66 36 15 C31.355 15.124 26.712 15.214 22.066 15.275 C20.485 15.3 18.905 15.334 17.325 15.377 C15.054 15.438 12.784 15.466 10.512 15.488 C10.159 15.501 10.159 15.501 8.371 15.566 C6.37 15.568 6.37 15.568 3 15 C0.598 12.142 0 10.737 0 7 C-2.64 7 -5.28 7 -8 7 C-8 6.67 -8 6.34 -8 6 C-5.69 6 -3.38 6 -1 6 C-1 5.34 -1 4.68 -1 4 C-4.96 4 -8.92 4 -13 4 C-9.686 1.791 -8.655 1.775 -4.812 1.875 C-3.911 1.893 -3.01 1.911 -2.082 1.93 C-1.395 1.953 -0.708 1.976 0 2 C0 1.34 0 0.68 0 0 Z " fill="#523020" transform="translate(45,33)"/>
<path d="M0 0 C14.52 0 29.04 0 44 0 C44 1.32 44 2.64 44 4 C29.48 4 14.96 4 0 4 C0 2.68 0 1.36 0 0 Z " fill="#5C4331" transform="translate(43,98)"/>
<path d="M0 0 C0.66 0 1.32 0 2 0 C2.33 1.32 2.66 2.64 3 4 C3.66 4 4.32 4 5 4 C5 25.45 5 46.9 5 69 C4.67 69 4.34 69 4 69 C3.67 56.46 3.34 43.92 3 31 C2.67 31 2.34 31 2 31 C2 24.07 2 17.14 2 10 C1.01 10.33 0.02 10.66 -1 11 C-1.688 13.062 -1.688 13.062 -2 15 C-1.34 15 -0.68 15 0 15 C0.33 16.32 0.66 17.64 1 19 C0.34 19 -0.32 19 -1 19 C-1.33 18.34 -1.66 17.68 -2 17 C-2.66 17.33 -3.32 17.66 -4 18 C-6 16 -6 16 -6.012 13.906 C-5.905 13.112 -5.798 12.318 -5.688 11.5 C-5.588 10.706 -5.489 9.912 -5.387 9.094 C-5 7 -5 7 -4 5 C-3.34 5 -2.68 5 -2 5 C-2 4.34 -2 3.68 -2 3 C-1.34 3 -0.68 3 0 3 C0 2.01 0 1.02 0 0 Z " fill="#E6DBCD" transform="translate(18,39)"/>
<path d="M0 0 C0.99 0 1.98 0 3 0 C3.046 8.293 3.082 16.585 3.104 24.878 C3.114 28.729 3.128 32.579 3.151 36.43 C3.173 40.145 3.185 43.86 3.19 47.576 C3.193 48.994 3.201 50.412 3.211 51.83 C3.226 53.815 3.227 55.8 3.227 57.784 C3.231 58.915 3.236 60.045 3.241 61.21 C3 64 3 64 1 67 C0.67 44.89 0.34 22.78 0 0 Z " fill="#F7F7F0" transform="translate(107,41)"/>
<path d="M0 0 C1.465 1.237 2.93 2.474 4.395 3.711 C5.866 4.892 7.43 5.954 9 7 C8.34 7 7.68 7 7 7 C7 7.99 7 8.98 7 10 C16.9 10.165 16.9 10.165 67 11 C67 11.33 67 11.66 67 12 C59.576 12.07 52.152 12.123 44.728 12.155 C41.28 12.171 37.832 12.192 34.384 12.226 C30.412 12.265 26.441 12.28 22.469 12.293 C21.241 12.308 20.014 12.324 18.749 12.34 C11.03 12.341 4.681 12.037 -1.5 6.938 C-3 5 -3 5 -3 3 C-1.5 1.375 -1.5 1.375 0 0 Z " fill="#7B5F54" transform="translate(28,111)"/>
<path d="M0 0 C40.094 -0.271 40.094 -0.271 45 3 C39.556 3.025 34.111 3.043 28.667 3.055 C26.816 3.06 24.966 3.067 23.115 3.075 C20.449 3.088 17.783 3.093 15.117 3.098 C14.295 3.103 13.473 3.108 12.626 3.113 C8.301 3.114 4.26 2.866 0 2 C0 1.34 0 0.68 0 0 Z " fill="#2F100D" transform="translate(35,119)"/>
<path d="M0 0 C1.772 0 3.544 0.006 5.316 0.016 C6.247 0.017 7.178 0.019 8.137 0.02 C11.122 0.026 14.108 0.038 17.094 0.051 C19.112 0.056 21.131 0.061 23.15 0.065 C28.11 0.076 33.071 0.093 38.031 0.114 C38.594 2.051 38.594 2.051 39.031 4.114 C38.031 5.114 38.031 5.114 34.062 5.227 C32.29 5.227 30.518 5.221 28.746 5.211 C27.815 5.21 26.884 5.208 25.925 5.207 C22.94 5.201 19.954 5.189 16.969 5.176 C14.95 5.171 12.931 5.166 10.912 5.162 C5.952 5.151 0.991 5.134 -3.969 5.114 C-4.531 3.176 -4.531 3.176 -4.969 1.114 C-3.969 0.114 -3.969 0.114 0 0 Z M-3.969 2.114 C-3.969 2.774 -3.969 3.434 -3.969 4.114 C1.227 4.188 6.423 4.242 11.619 4.278 C13.387 4.293 15.154 4.314 16.921 4.34 C19.463 4.376 22.004 4.393 24.547 4.406 C25.335 4.422 26.124 4.437 26.937 4.453 C30.337 4.454 32.609 4.367 35.561 2.595 C35.804 2.351 35.804 2.351 37.031 1.114 C31.513 1.089 25.996 1.071 20.478 1.059 C18.6 1.054 16.722 1.047 14.844 1.038 C12.149 1.026 9.453 1.02 6.758 1.016 C5.915 1.011 5.072 1.006 4.204 1 C-1.741 1 -1.741 1 -3.969 2.114 Z " fill="#886F62" transform="translate(47.968994140625,80.886474609375)"/>
<path d="M0 0 C0.99 0 1.98 0 3 0 C5 3 5 3 5 6 C10.28 6 15.56 6 21 6 C20.67 6.99 20.34 7.98 20 9 C16.535 9.165 16.535 9.165 -1 10 C-1.33 10.66 -1.66 11.32 -2 12 C-2.66 12 -3.32 12 -4 12 C-3.688 8.625 -3.688 8.625 -3 5 C-2.01 4.34 -1.02 3.68 0 3 C0 2.01 0 1.02 0 0 Z " fill="#FDFEFC" transform="translate(54,31)"/>
<path d="M0 0 C5.66 -0.025 11.32 -0.043 16.98 -0.055 C18.906 -0.06 20.833 -0.067 22.759 -0.075 C25.524 -0.088 28.29 -0.093 31.055 -0.098 C31.487 -0.1 31.487 -0.1 33.675 -0.113 C39.772 -0.114 39.772 -0.114 42 1 C41.67 2.32 41.34 3.64 41 5 C27.47 5 13.94 5 0 5 C0 4.67 0 4.34 0 4 C12.54 4 25.08 4 38 4 C38 3.01 38 2.02 38 1 C25.46 1 12.92 1 0 1 C0 0.67 0 0.34 0 0 Z " fill="#937F70" transform="translate(45,63)"/>
<path d="M0 0 C19.14 0.33 38.28 0.66 58 1 C58 1.33 58 1.66 58 2 C17.954 3.194 17.954 3.194 1 3 C0.67 2.01 0.34 1.02 0 0 Z " fill="#FBFDF5" transform="translate(34,123)"/>
<path d="M0 0 C-0.33 0.99 -0.66 1.98 -1 3 C-1.652 3.086 -2.305 3.173 -2.977 3.262 C-9.146 4.254 -12.571 5.571 -17 10 C-17.66 9.67 -18.32 9.34 -19 9 C-19.33 9.66 -19.66 10.32 -20 11 C-20.812 9.312 -20.812 9.312 -21 7 C-15.517 -0.197 -8.36 -0.341 0 0 Z " fill="#442218" transform="translate(45,36)"/>
<path d="M0 0 C2.29 3.435 2.178 4.985 2 9 C2.66 9 3.32 9 4 9 C4 7.35 4 5.7 4 4 C4.33 4 4.66 4 5 4 C5 6.31 5 8.62 5 11 C11.6 11 18.2 11 25 11 C25 11.33 25 11.66 25 12 C21.21 12.254 17.418 12.474 13.625 12.688 C12.545 12.76 11.465 12.833 10.352 12.908 C9.32 12.963 8.289 13.018 7.227 13.074 C6.75 13.103 6.75 13.103 4.338 13.249 C3.567 13.167 2.795 13.085 2 13 C0 10 0 10 0 7 C-2.64 7 -5.28 7 -8 7 C-8 6.67 -8 6.34 -8 6 C-5.69 6 -3.38 6 -1 6 C-1 5.34 -1 4.68 -1 4 C-4.96 4 -8.92 4 -13 4 C-9.686 1.791 -8.655 1.775 -4.812 1.875 C-3.911 1.893 -3.01 1.911 -2.082 1.93 C-1.395 1.953 -0.708 1.976 0 2 C0 1.34 0 0.68 0 0 Z " fill="#74564A" transform="translate(45,33)"/>
<path d="M0 0 C0.33 0.66 0.66 1.32 1 2 C1.66 2 2.32 2 3 2 C3 2.66 3 3.32 3 4 C3.307 3.958 3.307 3.958 4.863 3.746 C5.672 3.644 6.48 3.542 7.312 3.438 C8.113 3.333 8.914 3.229 9.738 3.121 C12 3 12 3 15 4 C15 3.34 15 2.68 15 2 C15.99 2 16.98 2 18 2 C18 2.66 18 3.32 18 4 C19.32 4.33 20.64 4.66 22 5 C19.122 6.632 17.044 7.255 13.742 7.266 C13.347 7.267 13.347 7.267 11.348 7.273 C10.532 7.266 9.716 7.258 8.875 7.25 C8.463 7.254 8.463 7.254 6.379 7.273 C5.591 7.271 4.804 7.268 3.992 7.266 C3.274 7.263 2.556 7.261 1.816 7.259 C0 7 0 7 -2 5 C-1.01 4.67 -0.02 4.34 1 4 C0.34 3.01 -0.32 2.02 -1 1 C-0.67 0.67 -0.34 0.34 0 0 Z " fill="#F6F4EC" transform="translate(53,15)"/>
<path d="M0 0 C1.125 3.75 1.125 3.75 0 6 C-0.66 6 -1.32 6 -2 6 C-2.33 6.99 -2.66 7.98 -3 9 C-3.99 9.33 -4.98 9.66 -6 10 C-6.66 10.66 -7.32 11.32 -8 12 C-8.99 11.67 -9.98 11.34 -11 11 C-12.917 10.784 -14.838 10.611 -16.762 10.465 C-17.88 10.378 -18.998 10.291 -20.15 10.201 C-20.734 10.158 -20.734 10.158 -23.688 9.938 C-24.866 9.847 -26.045 9.756 -27.26 9.662 C-30.173 9.438 -33.086 9.217 -36 9 C-36 8.67 -36 8.34 -36 8 C-35.052 8.006 -34.103 8.013 -33.126 8.019 C-29.599 8.026 -26.075 8.002 -22.548 7.957 C-21.023 7.944 -19.498 7.943 -17.974 7.955 C-15.778 7.97 -13.586 7.941 -11.391 7.902 C-10.731 7.9 -10.731 7.9 -7.392 7.886 C-4 7 -4 7 -2.653 5.382 C-1.538 3.444 -1.538 3.444 0 0 Z " fill="#D9D0C7" transform="translate(85,40)"/>
<path d="M0 0 C-0.398 0.401 -0.797 0.802 -1.207 1.215 C-5.455 5.772 -7.447 9.993 -9 16 C-9.66 16 -10.32 16 -11 16 C-12.83 6.648 -12.83 6.648 -10.941 2.898 C-7.468 -0.909 -5.071 -1.69 0 0 Z " fill="#422118" transform="translate(58,26)"/>
<path d="M0 0 C1.479 1.123 1.479 1.123 3 3 C3.361 5.715 3.361 5.715 3.341 9.032 C3.34 10.273 3.34 11.514 3.34 12.793 C3.325 14.147 3.309 15.501 3.293 16.855 C3.287 18.241 3.283 19.627 3.28 21.013 C3.269 24.658 3.239 28.302 3.206 31.947 C3.175 35.667 3.162 39.387 3.146 43.107 C3.114 50.405 3.063 57.703 3 65 C2.67 65 2.34 65 2 65 C1.99 64.27 1.979 63.539 1.969 62.787 C1.871 55.901 1.768 49.015 1.661 42.129 C1.606 38.589 1.552 35.049 1.503 31.509 C1.446 27.438 1.381 23.368 1.316 19.297 C1.3 18.027 1.283 16.757 1.266 15.449 C1.246 14.268 1.226 13.087 1.205 11.87 C1.19 10.831 1.174 9.792 1.158 8.721 C1.019 6.319 0.639 4.305 0 2 C0 1.34 0 0.68 0 0 Z " fill="#BEAA9D" transform="translate(99,44)"/>
<path d="M0 0 C0.66 0 1.32 0 2 0 C2 3.3 2 6.6 2 10 C-7.9 10 -17.8 10 -28 10 C-28 9.67 -28 9.34 -28 9 C-26.759 8.939 -25.517 8.879 -24.238 8.816 C-22.596 8.732 -20.954 8.647 -19.312 8.562 C-18.496 8.523 -17.679 8.484 -16.838 8.443 C-12.784 8.23 -8.98 7.832 -5 7 C-2.188 7.438 -2.188 7.438 0 8 C-0.186 7.051 -0.371 6.102 -0.562 5.125 C-1 2 -1 2 0 0 Z " fill="#E1D9CB" transform="translate(78,34)"/>
<path d="M0 0 C2.625 0.937 2.625 0.937 5 2 C4.67 2.495 4.67 2.495 3 5 C3.99 5.165 3.99 5.165 9 6 C8.428 6.266 7.855 6.531 7.266 6.805 C4.892 8.057 2.878 9.494 0.75 11.125 C0.044 11.664 -0.663 12.203 -1.391 12.758 C-1.922 13.168 -2.453 13.578 -3 14 C-3.66 13.34 -4.32 12.68 -5 12 C-4.01 12 -3.02 12 -2 12 C-2 10.35 -2 8.7 -2 7 C-1.01 7 -0.02 7 1 7 C-0.32 6.34 -1.64 5.68 -3 5 C-2.625 3.062 -2.625 3.062 -2 1 C-1.34 0.67 -0.68 0.34 0 0 Z " fill="#EFECE4" transform="translate(50,16)"/>
<path d="M0 0 C1.078 0.009 2.155 0.018 3.266 0.027 C4.085 0.039 4.905 0.051 5.75 0.062 C5.09 0.392 5.09 0.392 1.75 2.062 C1.75 2.723 1.75 3.383 1.75 4.062 C2.74 4.392 3.73 4.723 4.75 5.062 C2.854 5.117 0.959 5.155 -0.938 5.188 C-1.993 5.211 -3.049 5.234 -4.137 5.258 C-7.273 5.061 -9.426 4.393 -12.25 3.062 C-8.687 -0.501 -4.858 -0.053 0 0 Z " fill="#56382B" transform="translate(65.25,21.9375)"/>
<path d="M0 0 C1.32 1.32 2.64 2.64 4 4 C2.988 7.403 2.352 8.757 -0.625 10.812 C-1.409 11.204 -2.192 11.596 -3 12 C-4.65 10.68 -6.3 9.36 -8 8 C-7.526 7.804 -7.526 7.804 -5.125 6.812 C-1.659 4.802 -1.02 3.773 0 0 Z " fill="#45271F" transform="translate(101,109)"/>
<path d="M0 0 C3.375 0.563 5.959 1.479 9 3 C9.99 3 10.98 3 12 3 C12 4.32 12 5.64 12 7 C13.32 7.66 14.64 8.32 16 9 C12.992 9.363 10.915 9.613 8 9 C5.547 6.968 3.835 4.583 2 2 C1.34 1.34 0.68 0.68 0 0 Z " fill="#EDE9DE" transform="translate(76,24)"/>
<path d="M0 0 C3.792 -0.058 7.583 -0.094 11.375 -0.125 C12.455 -0.142 13.535 -0.159 14.648 -0.176 C15.68 -0.182 16.711 -0.189 17.773 -0.195 C18.25 -0.201 18.25 -0.201 20.662 -0.227 C23 0 23 0 25 2 C24.38 1.995 23.759 1.99 23.12 1.984 C20.309 1.963 17.498 1.95 14.688 1.938 C13.711 1.929 12.735 1.921 11.729 1.912 C10.791 1.909 9.853 1.906 8.887 1.902 C8.023 1.897 7.159 1.892 6.268 1.886 C4 2 4 2 1 3 C0.67 2.01 0.34 1.02 0 0 Z " fill="#4F3224" transform="translate(44,64)"/>
<path d="M0 0 C5.637 -0.55 8.493 0.818 13 4 C13.938 6.25 13.938 6.25 14 8 C13.34 8 12.68 8 12 8 C12 7.34 12 6.68 12 6 C11.216 6.206 10.433 6.413 9.625 6.625 C8.759 6.749 7.892 6.873 7 7 C6.34 6.34 5.68 5.68 5 5 C5 4.34 5 3.68 5 3 C4.175 2.67 4.175 2.67 0 1 C0 0.67 0 0.34 0 0 Z " fill="#EEECE8" transform="translate(86,39)"/>
<path d="M0 0 C1.189 0.009 2.377 0.018 3.602 0.027 C4.517 0.039 5.432 0.051 6.375 0.062 C6.375 0.392 6.375 0.723 6.375 1.062 C5.99 1.087 5.99 1.087 4.039 1.211 C3.036 1.286 2.033 1.36 1 1.438 C0.002 1.507 -0.995 1.577 -2.023 1.648 C-4.625 2.062 -4.625 2.062 -6.625 4.062 C-7.615 4.062 -8.605 4.062 -9.625 4.062 C-9.295 5.383 -8.965 6.703 -8.625 8.062 C-9.615 8.392 -10.605 8.722 -11.625 9.062 C-12.285 10.053 -12.945 11.043 -13.625 12.062 C-13.172 7.196 -11.98 4.621 -8.625 1.062 C-5.741 -0.38 -3.208 -0.031 0 0 Z " fill="#D3CDC3" transform="translate(63.625,26.9375)"/>
<path d="M0 0 C11.55 0 23.1 0 35 0 C35 0.33 35 0.66 35 1 C34.137 1.025 33.274 1.05 32.385 1.076 C29.182 1.171 25.978 1.27 22.775 1.372 C21.389 1.416 20.003 1.457 18.616 1.497 C16.623 1.555 14.63 1.619 12.637 1.684 C11.437 1.72 10.238 1.757 9.003 1.795 C6 2 6 2 3 3 C3 2.34 3 1.68 3 1 C2.01 0.67 1.02 0.34 0 0 Z " fill="#3F2213" transform="translate(44,99)"/>
<path d="M0 0 C0.66 0 1.32 0 2 0 C2 0.66 2 1.32 2 2 C2.66 2.33 3.32 2.66 4 3 C3.216 3.763 2.433 4.526 1.625 5.312 C-1 8 -1 8 -3 11 C-3 10.01 -3 9.02 -3 8 C-3.66 8 -4.32 8 -5 8 C-4.67 6.68 -4.34 5.36 -4 4 C-3.34 4.33 -2.68 4.66 -2 5 C-2.33 3.68 -2.66 2.36 -3 1 C-2.01 1.33 -1.02 1.66 0 2 C0 1.34 0 0.68 0 0 Z " fill="#EBE5DB" transform="translate(26,35)"/>
<path d="M0 0 C0.412 0.006 0.412 0.006 2.496 0.035 C3.322 0.044 4.149 0.053 5 0.062 C5.638 0.074 6.276 0.086 6.934 0.098 C6.604 1.088 6.274 2.078 5.934 3.098 C2.304 3.758 -1.326 4.418 -5.066 5.098 C-2.579 0.122 -2.579 0.122 0 0 Z " fill="#4D2011" transform="translate(38.06640625,35.90234375)"/>
<path d="M0 0 C3.14 0.336 4.051 1.052 6.312 3.375 C6.869 4.241 7.426 5.108 8 6 C7.67 6.99 7.34 7.98 7 9 C6.546 8.505 6.093 8.01 5.625 7.5 C4 6 4 6 2 6 C1.34 4.02 0.68 2.04 0 0 Z " fill="#371B11" transform="translate(76,26)"/>
<path d="M0 0 C5.192 -0.212 9.127 0.409 14 2 C12 4 12 4 9.375 4.125 C8.591 4.084 7.808 4.043 7 4 C6.67 3.34 6.34 2.68 6 2 C5.381 2.186 4.763 2.371 4.125 2.562 C2 3 2 3 0 2 C0 1.34 0 0.68 0 0 Z " fill="#FDFDFC" transform="translate(84,113)"/>
<path d="M0 0 C0.99 0.165 0.99 0.165 6 1 C4.375 3 4.375 3 2 5 C-1.25 5.25 -1.25 5.25 -4 5 C-2.68 3.35 -1.36 1.7 0 0 Z " fill="#3C1910" transform="translate(52,25)"/>
<path d="M0 0 C2.31 0 4.62 0 7 0 C7.33 0.66 7.66 1.32 8 2 C7.34 2 6.68 2 6 2 C6 2.66 6 3.32 6 4 C3.69 3.67 1.38 3.34 -1 3 C-0.67 2.01 -0.34 1.02 0 0 Z " fill="#EDEAE0" transform="translate(72,20)"/>
<path d="M0 0 C0.33 0 0.66 0 1 0 C1.33 2.97 1.66 5.94 2 9 C2.66 9 3.32 9 4 9 C4.33 8.01 4.66 7.02 5 6 C5.33 7.98 5.66 9.96 6 12 C3.085 10.926 1.222 10.222 -1 8 C-0.967 5.271 -0.436 2.703 0 0 Z " fill="#F5F4EE" transform="translate(30,105)"/>
<path d="M0 0 C1.65 0.33 3.3 0.66 5 1 C4.67 1.165 4.67 1.165 3 2 C3 2.99 3 3.98 3 5 C4.98 5 6.96 5 9 5 C9 5.33 9 5.66 9 6 C1.25 6.125 1.25 6.125 -1 5 C-0.67 3.35 -0.34 1.7 0 0 Z " fill="#492920" transform="translate(32,116)"/>
<path d="M0 0 C-0.33 1.65 -0.66 3.3 -1 5 C-1.825 4.67 -1.825 4.67 -6 3 C-5.67 2.34 -5.34 1.68 -5 1 C-6.32 0.34 -7.64 -0.32 -9 -1 C-5.799 -2.6 -3.277 -1.032 0 0 Z " fill="#EBE7DB" transform="translate(102,34)"/>
<path d="M0 0 C0.66 0.33 1.32 0.66 2 1 C1.67 1.66 1.34 2.32 1 3 C1.66 3.33 2.32 3.66 3 4 C1.68 5.32 0.36 6.64 -1 8 C-1 6.68 -1 5.36 -1 4 C-1.99 3.34 -2.98 2.68 -4 2 C-2.125 0.938 -2.125 0.938 0 0 Z " fill="#ECE8E0" transform="translate(101,119)"/>
<path d="M0 0 C3.3 0 6.6 0 10 0 C9.67 1.32 9.34 2.64 9 4 C7.35 3.67 5.7 3.34 4 3 C4 2.34 4 1.68 4 1 C2.68 0.67 1.36 0.34 0 0 Z " fill="#3E1D10" transform="translate(63,23)"/>
<path d="M0 0 C1.32 0.66 2.64 1.32 4 2 C4 3.98 4 5.96 4 8 C3.34 7.67 2.68 7.34 2 7 C2.33 6.01 2.66 5.02 3 4 C0.69 3.67 -1.62 3.34 -4 3 C-2.68 2.01 -1.36 1.02 0 0 Z " fill="#FBF8F2" transform="translate(84,60)"/>
<path d="M0 0 C1.32 0.33 2.64 0.66 4 1 C2.63 4.161 2.011 4.993 -1 7 C-1.66 6.34 -2.32 5.68 -3 5 C-2.01 5 -1.02 5 0 5 C0 3.35 0 1.7 0 0 Z " fill="#E8DED6" transform="translate(48,23)"/>
<path d="M0 0 C4 4.625 4 4.625 4 8 C3.175 7.67 3.175 7.67 -1 6 C-0.67 4.02 -0.34 2.04 0 0 Z " fill="#EFEDE1" transform="translate(23,112)"/>
<path d="M0 0 C-0.639 0.227 -1.279 0.454 -1.938 0.688 C-4 2 -4 2 -4.75 4.625 C-4.833 5.409 -4.915 6.192 -5 7 C-5.66 6.34 -6.32 5.68 -7 5 C-6.625 2.375 -6.625 2.375 -6 0 C-3 -1 -3 -1 0 0 Z " fill="#F9F7F3" transform="translate(48,80)"/>
<path d="M0 0 C6.462 0.462 6.462 0.462 9 3 C5.37 2.67 1.74 2.34 -2 2 C-1.34 1.34 -0.68 0.68 0 0 Z " fill="#4D2B1D" transform="translate(91,36)"/>
<path d="M0 0 C0.66 0 1.32 0 2 0 C2 1.98 2 3.96 2 6 C1.34 6 0.68 6 0 6 C0 6.66 0 7.32 0 8 C-0.66 8 -1.32 8 -2 8 C-1.34 5.36 -0.68 2.72 0 0 Z " fill="#E9E1D8" transform="translate(106,109)"/>
<path d="M0 0 C1.32 1.65 2.64 3.3 4 5 C3.67 5.165 3.67 5.165 2 6 C2 5.34 2 4.68 2 4 C0.35 4.33 -1.3 4.66 -3 5 C-3 3 -3 3 -1.5 1.375 C-1.005 0.921 -0.51 0.468 0 0 Z " fill="#452B20" transform="translate(28,111)"/>
<path d="M0 0 C2.31 0 4.62 0 7 0 C7 0.99 7 1.98 7 3 C5.68 3 4.36 3 3 3 C3 2.34 3 1.68 3 1 C2.01 0.67 1.02 0.34 0 0 Z " fill="#4E2F1D" transform="translate(79,99)"/>
<path d="M0 0 C0 0.99 0 1.98 0 3 C-2.875 3.125 -2.875 3.125 -6 3 C-6.66 2.34 -7.32 1.68 -8 1 C-2.25 0 -2.25 0 0 0 Z " fill="#6E4B39" transform="translate(87,82)"/>
<path d="M0 0 C0.99 0.33 1.98 0.66 3 1 C3 1.66 3 2.32 3 3 C2.34 3 1.68 3 1 3 C0.67 3.66 0.34 4.32 0 5 C-0.66 4.67 -1.32 4.34 -2 4 C-1.34 2.68 -0.68 1.36 0 0 Z " fill="#39180D" transform="translate(100,113)"/>
<path d="M0 0 C-0.495 0.495 -0.495 0.495 -3 3 C-3.66 2.67 -4.32 2.34 -5 2 C-5.33 2.66 -5.66 3.32 -6 4 C-6.33 2.68 -6.66 1.36 -7 0 C-2.25 -1.125 -2.25 -1.125 0 0 Z " fill="#3F1F15" transform="translate(31,43)"/>
<path d="M0 0 C0.66 0 1.32 0 2 0 C1.67 2.64 1.34 5.28 1 8 C0.67 8 0.34 8 0 8 C-1.125 2.25 -1.125 2.25 0 0 Z " fill="#F3F2ED" transform="translate(78,34)"/>
<path d="M0 0 C2.375 0.312 2.375 0.312 5 1 C5.66 1.99 6.32 2.98 7 4 C4 4 4 4 1.812 2 C1.214 1.34 0.616 0.68 0 0 Z " fill="#DFD7C9" transform="translate(76,24)"/>
<path d="M0 0 C0.99 0.165 0.99 0.165 6 1 C4 3 4 3 1.375 3.125 C0.591 3.084 -0.192 3.043 -1 3 C-0.67 2.01 -0.34 1.02 0 0 Z " fill="#F3F0E8" transform="translate(92,114)"/>
<path d="M0 0 C1.32 0.66 2.64 1.32 4 2 C3.67 2.495 3.67 2.495 2 5 C1.01 4.67 0.02 4.34 -1 4 C-0.67 2.68 -0.34 1.36 0 0 Z " fill="#40241A" transform="translate(80,42)"/>
<path d="M0 0 C1.32 0 2.64 0 4 0 C4 0.99 4 1.98 4 3 C2.68 3 1.36 3 0 3 C0 2.01 0 1.02 0 0 Z " fill="#684832" transform="translate(83,64)"/>
<path d="M0 0 C0.99 0.99 1.98 1.98 3 3 C2.67 3.99 2.34 4.98 2 6 C1.34 5.67 0.68 5.34 0 5 C0 3.35 0 1.7 0 0 Z " fill="#412717" transform="translate(81,29)"/>
<path d="M0 0 C2.125 0.375 2.125 0.375 4 1 C3.34 1.66 2.68 2.32 2 3 C-0.125 2.625 -0.125 2.625 -2 2 C-1.34 1.34 -0.68 0.68 0 0 Z " fill="#DED7CF" transform="translate(55,28)"/>
<path d="M0 0 C0.66 0 1.32 0 2 0 C2.33 0.99 2.66 1.98 3 3 C2.34 3.99 1.68 4.98 1 6 C0.67 4.02 0.34 2.04 0 0 Z " fill="#E8E1D3" transform="translate(105,42)"/>
<path d="M0 0 C0.825 0.33 0.825 0.33 5 2 C5 2.33 5 2.66 5 3 C3.35 3 1.7 3 0 3 C0 2.01 0 1.02 0 0 Z " fill="#F1EAE5" transform="translate(94,41)"/>
</svg>
